<?xml version="1.0" standalone="no"?>
<!DOCTYPE svg PUBLIC "-//W3C//DTD SVG 20010904//EN"
 "http://www.w3.org/TR/2001/REC-SVG-20010904/DTD/svg10.dtd">
<svg version="1.0" xmlns="http://www.w3.org/2000/svg"
 width="512.000000pt" height="512.000000pt" viewBox="0 0 512.000000 512.000000"
 preserveAspectRatio="xMidYMid meet">
<metadata>
Created by potrace 1.14, written by Peter Selinger 2001-2017
</metadata>
<g transform="translate(0.000000,512.000000) scale(0.100000,-0.100000)"
fill="#000000" stroke="none">
<path d="M2504 5097 l-29 -25 -3 -180 -3 -179 26 -32 c21 -25 34 -31 65 -31
31 0 44 6 65 31 l26 32 -3 178 c-3 200 -7 211 -79 224 -30 5 -41 2 -65 -18z"/>
<path d="M1275 4695 c-27 -26 -33 -72 -14 -108 7 -12 52 -76 100 -142 82 -112
115 -144 147 -139 6 1 18 2 25 3 45 4 79 79 57 122 -25 47 -192 269 -210 279
-33 18 -79 11 -105 -15z"/>
<path d="M3733 4704 c-28 -25 -191 -248 -202 -277 -23 -61 16 -116 81 -117 32
0 42 7 81 53 24 28 74 94 111 146 71 102 80 137 48 179 -25 32 -90 41 -119 16z"/>
<path d="M2375 4424 c-172 -26 -325 -76 -475 -157 -431 -232 -745 -670 -806
-1127 -13 -99 -5 -414 11 -441 2 -3 6 -16 9 -30 23 -120 60 -234 113 -343 37
-76 113 -208 124 -216 4 -3 25 -30 48 -60 23 -30 81 -95 129 -145 101 -102
171 -194 213 -277 39 -77 78 -215 84 -299 5 -61 3 -69 -12 -70 -60 -2 -109
-37 -135 -96 -33 -74 -6 -160 64 -203 l29 -18 -35 -21 c-97 -60 -96 -204 1
-271 24 -17 31 -26 21 -30 -85 -33 -120 -151 -69 -234 42 -67 55 -71 264 -74
103 -2 187 -7 188 -10 15 -137 131 -247 301 -285 264 -59 551 80 557 271 1 22
2 22 164 22 136 0 168 3 203 19 110 50 120 211 18 280 -31 22 -33 26 -17 32
25 10 70 59 81 90 26 67 -3 150 -67 193 l-29 20 31 20 c46 31 71 81 71 143 0
69 -39 121 -110 145 -49 16 -49 17 -48 60 1 71 11 129 34 203 45 142 96 220
241 370 190 195 281 330 363 534 23 57 62 185 70 229 41 219 41 395 2 618 -17
94 -70 242 -126 354 -217 431 -618 723 -1100 801 -102 16 -308 18 -405 3z"/>
<path d="M516 3651 c-25 -26 -28 -35 -23 -68 4 -24 15 -45 31 -57 27 -21 308
-115 344 -116 34 0 82 52 82 89 0 55 -33 78 -180 127 -74 25 -155 47 -180 50
-41 5 -48 3 -74 -25z"/>
<path d="M4360 3630 c-157 -53 -190 -76 -190 -131 0 -46 50 -93 93 -87 48 7
300 91 330 110 49 33 44 123 -9 147 -40 18 -70 12 -224 -39z"/>
</g>
</svg>
